# xmcd
#
# Track frame offsets: 
#        150
#        20081
#        44218
#        72463
#        99210
#        118478
#        147914
#        165326
#
# Disc length: 2520 seconds
#
# Revision: 1
# Processed by: cddbd v1.5.2PL0 Copyright (c) Steve Scherf et al.
# Submitted via: ExactAudioCopy v0.99pb5
#
DISCID=7509d608
DTITLE=James McMurtry - Live in Europe
DYEAR=2009
DGENRE=Rock
TTITLE0=Bayou Tortue
TTITLE1=Just Us Kids
TTITLE2=Hurricane Party
TTITLE3=You'd a' Thought (Leonard Cohen Must Die)
TTITLE4=Fraeulein O.
TTITLE5=Ruby and Carlos
TTITLE6=Freeway View
TTITLE7=Restless
EXTD=
EXTT0=
EXTT1=
EXTT2=
EXTT3=
EXTT4=
EXTT5=
EXTT6=
EXTT7=
PLAYORDER=
